<?xml version="1.0" encoding="UTF-8" standalone="no" ?>
<!DOCTYPE svg PUBLIC "-//W3C//DTD SVG 1.1//EN" "http://www.w3.org/Graphics/SVG/1.1/DTD/svg11.dtd">
<svg xmlns="http://www.w3.org/2000/svg" xmlns:xlink="http://www.w3.org/1999/xlink" version="1.1" width="1080" height="1080" viewBox="0 0 1080 1080" xml:space="preserve">
<desc>Created with Fabric.js 5.2.4</desc>
<defs>
</defs>
<g transform="matrix(1 0 0 1 540 540)" id="b423bd22-1980-410d-9c1b-4b43afd687a8"  >
<rect style="stroke: none; stroke-width: 1; stroke-dasharray: none; stroke-linecap: butt; stroke-dashoffset: 0; stroke-linejoin: miter; stroke-miterlimit: 4; fill: rgb(255,255,255); fill-rule: nonzero; opacity: 1; visibility: hidden;" vector-effect="non-scaling-stroke"  x="-540" y="-540" rx="0" ry="0" width="1080" height="1080" />
</g>
<g transform="matrix(1 0 0 1 540 540)" id="fd269108-4a61-43d2-91e6-9224b31336df"  >
</g>
<g transform="matrix(1 0 0 1 540 540)"  >
<g style="" vector-effect="non-scaling-stroke"   >
		<g transform="matrix(1.56 0 0 1.56 -130.08 -103.59)"  >
<path style="stroke: none; stroke-width: 1; stroke-dasharray: none; stroke-linecap: butt; stroke-dashoffset: 0; stroke-linejoin: miter; stroke-miterlimit: 4; fill: rgb(35,31,32); fill-rule: nonzero; opacity: 1;" vector-effect="non-scaling-stroke"  transform=" translate(-172.7, -189.7)" d="M 290.4 103.5 L 54.9 103.5 C 39.9 103.5 27.7 115.7 27.7 130.7 L 27.7 275.9 L 317.7 275.9 L 317.7 130.7 C 317.6 115.6 305.5 103.5 290.4 103.5 z" stroke-linecap="round" />
</g>
		<g transform="matrix(1.56 0 0 1.56 -130.39 145.7)"  >
<path style="stroke: none; stroke-width: 1; stroke-dasharray: none; stroke-linecap: butt; stroke-dashoffset: 0; stroke-linejoin: miter; stroke-miterlimit: 4; fill: rgb(35,31,32); fill-rule: nonzero; opacity: 1;" vector-effect="non-scaling-stroke"  transform=" translate(-172.5, -349.25)" d="M 27.7 304.7 C 27.7 319.7 39.9 331.9 54.9 331.9 L 149.8 331.9 L 149.8 394.59999999999997 L 123.10000000000001 394.59999999999997 C 119.2 394.59999999999997 116.10000000000001 397.7 116.10000000000001 401.59999999999997 C 116.10000000000001 405.49999999999994 119.2 408.59999999999997 123.10000000000001 408.59999999999997 L 222.10000000000002 408.59999999999997 C 226.00000000000003 408.59999999999997 229.10000000000002 405.49999999999994 229.10000000000002 401.59999999999997 C 229.10000000000002 397.7 226.00000000000003 394.59999999999997 222.10000000000002 394.59999999999997 L 194.40000000000003 394.59999999999997 L 194.40000000000003 331.9 L 290.30000000000007 331.9 C 305.30000000000007 331.9 317.50000000000006 319.7 317.50000000000006 304.7 L 317.50000000000006 289.9 L 27.500000000000057 289.9 L 27.500000000000057 304.7 z" stroke-linecap="round" />
</g>
		<g transform="matrix(1.56 0 0 1.56 257.42 -4.45)"  >
<path style="stroke: none; stroke-width: 1; stroke-dasharray: none; stroke-linecap: butt; stroke-dashoffset: 0; stroke-linejoin: miter; stroke-miterlimit: 4; fill: rgb(35,31,32); fill-rule: nonzero; opacity: 1;" vector-effect="non-scaling-stroke"  transform=" translate(-420.7, -253.15)" d="M 471.4 103.4 L 369.9 103.4 C 362.79999999999995 103.4 357 109.2 357 116.30000000000001 L 357 390 C 357 397.1 362.8 402.9 369.9 402.9 L 471.5 402.9 C 478.6 402.9 484.4 397.09999999999997 484.4 390 L 484.4 116.3 C 484.3 109.2 478.5 103.4 471.4 103.4 z M 383.5 157.6 L 457.8 157.6 L 457.8 198.6 L 383.5 198.6 L 383.5 157.6 z M 420.6 351.4 C 408.8 351.4 399.20000000000005 341.79999999999995 399.20000000000005 330 C 399.20000000000005 318.2 408.80000000000007 308.6 420.6 308.6 C 432.40000000000003 308.6 442 318.20000000000005 442 330 C 442 341.8 432.5 351.4 420.6 351.4 z M 457.8 229.2 L 383.5 229.2 C 379.6 229.2 376.5 226.1 376.5 222.2 C 376.5 218.29999999999998 379.6 215.2 383.5 215.2 L 457.8 215.2 C 461.7 215.2 464.8 218.29999999999998 464.8 222.2 C 464.8 226.1 461.7 229.2 457.8 229.2 z" stroke-linecap="round" />
</g>
</g>
</g>
<g transform="matrix(10.75 0 0 10.75 556.99 521.14)" id="f450ac57-a31d-44cb-9616-c3a6f34b2fcc"  >
<path style="stroke: rgb(0,0,0); stroke-width: 9; stroke-dasharray: none; stroke-linecap: butt; stroke-dashoffset: 0; stroke-linejoin: miter; stroke-miterlimit: 4; fill: rgb(0,0,0); fill-rule: nonzero; opacity: 1;" vector-effect="non-scaling-stroke"  transform=" translate(-50, -50)" d="M 50 92.875 C 26.358 92.875 7.125 73.642 7.125 50 C 7.125 26.358000000000004 26.358 7.125 50 7.125 C 73.642 7.125 92.875 26.358 92.875 50 C 92.875 73.642 73.642 92.875 50 92.875 z M 50 9.125 C 27.461 9.125 9.125 27.461 9.125 50 C 9.125 72.538 27.461 90.875 50 90.875 C 72.538 90.875 90.875 72.538 90.875 50 C 90.875 27.461 72.538 9.125 50 9.125 z" stroke-linecap="round" />
</g>
</svg>