<?xml version="1.0" encoding="UTF-8" standalone="no" ?>
<!DOCTYPE svg PUBLIC "-//W3C//DTD SVG 1.1//EN" "http://www.w3.org/Graphics/SVG/1.1/DTD/svg11.dtd">
<svg xmlns="http://www.w3.org/2000/svg" xmlns:xlink="http://www.w3.org/1999/xlink" version="1.1" width="1080" height="1080" viewBox="0 0 1080 1080" xml:space="preserve">
<desc>Created with Fabric.js 5.2.4</desc>
<defs>
</defs>
<g transform="matrix(1 0 0 1 540 540)" id="0b998813-311c-40ca-8d5b-b067c76426f4"  >
<rect style="stroke: none; stroke-width: 1; stroke-dasharray: none; stroke-linecap: butt; stroke-dashoffset: 0; stroke-linejoin: miter; stroke-miterlimit: 4; fill: rgb(255,255,255); fill-rule: nonzero; opacity: 1; visibility: hidden;" vector-effect="non-scaling-stroke"  x="-540" y="-540" rx="0" ry="0" width="1080" height="1080" />
</g>
<g transform="matrix(1 0 0 1 540 540)" id="78c83773-5d4d-4a93-8cdf-34d0b6f84d43"  >
</g>
<g transform="matrix(NaN NaN NaN NaN 0 0)"  >
<g style=""   >
</g>
</g>
<g transform="matrix(1 0 0 1 540 540)"  >
<g style="" vector-effect="non-scaling-stroke"   >
		<g transform="matrix(0.8 0 0 0.8 -104.36 234.21)"  >
<path style="stroke: rgb(18,87,130); stroke-width: 1; stroke-dasharray: none; stroke-linecap: butt; stroke-dashoffset: 0; stroke-linejoin: miter; stroke-miterlimit: 4; fill: rgb(35,31,32); fill-rule: nonzero; opacity: 1;" vector-effect="non-scaling-stroke"  transform=" translate(-369.54, -792.76)" d="M 236.5 746.68 C 225.43 746.68 215.13 743.4 206.5 737.75 L 206.5 755.83 C 206.5 772.4000000000001 219.93 785.83 236.5 785.83 L 351.08 785.83 L 351.08 810.83 L 268.67999999999995 810.83 C 263.5799999999999 810.83 258.9599999999999 812.9000000000001 255.61999999999995 816.24 C 252.27999999999994 819.58 250.20999999999995 824.2 250.20999999999995 829.3 C 250.20999999999995 839.5 258.4789999999999 847.77 268.67999999999995 847.77 L 351.0799999999999 847.77 L 388.00999999999993 847.77 L 470.40999999999997 847.77 C 475.51 847.77 480.13 845.6999999999999 483.46999999999997 842.36 C 486.80999999999995 839.02 488.88 834.4 488.88 829.3000000000001 C 488.88 819.1 480.609 810.83 470.40999999999997 810.83 L 388.01 810.83 L 388.01 785.83 L 502.59 785.83 C 519.16 785.83 532.5899999999999 772.4000000000001 532.5899999999999 755.83 L 532.5899999999999 737.75 C 523.9599999999999 743.4 513.6499999999999 746.68 502.5899999999999 746.68 L 236.5 746.68 z" stroke-linecap="round" />
</g>
		<g transform="matrix(0.8 0 0 0.8 -104.36 -130.36)"  >
<rect style="stroke: rgb(18,87,130); stroke-width: 1; stroke-dasharray: none; stroke-linecap: butt; stroke-dashoffset: 0; stroke-linejoin: miter; stroke-miterlimit: 4; fill: rgb(35,31,32); fill-rule: nonzero; opacity: 1;" vector-effect="non-scaling-stroke"  x="-94.334" y="-13.5905" rx="0" ry="0" width="188.668" height="27.181" />
</g>
		<g transform="matrix(0.8 0 0 0.8 -104.36 97.57)"  >
<polygon style="stroke: rgb(18,87,130); stroke-width: 1; stroke-dasharray: none; stroke-linecap: butt; stroke-dashoffset: 0; stroke-linejoin: miter; stroke-miterlimit: 4; fill: rgb(35,31,32); fill-rule: nonzero; opacity: 1;" vector-effect="non-scaling-stroke"  points="94.33,-13.59 -94.33,-13.59 -94.33,13.59 94.33,13.59 94.33,-11.37 94.33,-11.37 94.33,-13.59 94.33,-13.59 " />
</g>
		<g transform="matrix(0.8 0 0 0.8 -104.36 -16.39)"  >
<rect style="stroke: rgb(18,87,130); stroke-width: 1; stroke-dasharray: none; stroke-linecap: butt; stroke-dashoffset: 0; stroke-linejoin: miter; stroke-miterlimit: 4; fill: rgb(35,31,32); fill-rule: nonzero; opacity: 1;" vector-effect="non-scaling-stroke"  x="-94.334" y="-13.5905" rx="0" ry="0" width="188.668" height="27.181" />
</g>
		<g transform="matrix(0.8 0 0 0.8 -104.36 -50.44)"  >
<path style="stroke: rgb(18,87,130); stroke-width: 1; stroke-dasharray: none; stroke-linecap: butt; stroke-dashoffset: 0; stroke-linejoin: miter; stroke-miterlimit: 4; fill: rgb(35,31,32); fill-rule: nonzero; opacity: 1;" vector-effect="non-scaling-stroke"  transform=" translate(-369.54, -436.95)" d="M 502.59 152.23 L 236.5 152.23 C 219.93 152.23 206.5 165.66 206.5 182.23 L 206.5 691.68 C 206.5 708.2399999999999 219.93 721.68 236.5 721.68 L 502.59 721.68 C 519.16 721.68 532.5899999999999 708.2399999999999 532.5899999999999 691.68 L 532.5899999999999 182.23 C 532.59 165.66 519.16 152.23 502.59 152.23 z M 327.425 213.354 L 357.045 213.354 C 363.94800000000004 213.354 369.545 218.95100000000002 369.545 225.85500000000002 C 369.545 232.75900000000001 363.94800000000004 238.35500000000002 357.045 238.35500000000002 L 327.425 238.35500000000002 C 320.522 238.35500000000002 314.925 232.75900000000001 314.925 225.85500000000002 C 314.925 218.95 320.522 213.354 327.425 213.354 z M 262.712 213.354 L 282.378 213.354 C 289.281 213.354 294.878 218.95100000000002 294.878 225.85500000000002 C 294.878 232.75900000000001 289.281 238.35500000000002 282.378 238.35500000000002 L 262.712 238.35500000000002 C 255.808 238.35500000000002 250.21099999999998 232.75900000000001 250.21099999999998 225.85500000000002 C 250.211 218.95 255.808 213.354 262.712 213.354 z M 488.879 644.729 C 488.879 653.47 481.793 660.556 473.05100000000004 660.556 L 266.039 660.556 C 257.29699999999997 660.556 250.21099999999998 653.47 250.21099999999998 644.729 L 250.21099999999998 599.202 C 250.21099999999998 590.461 257.29699999999997 583.375 266.039 583.375 L 473.051 583.375 C 481.793 583.375 488.87899999999996 590.461 488.87899999999996 599.202 L 488.87899999999996 644.729 z M 488.879 502.27 C 488.879 511.01099999999997 481.793 518.097 473.05100000000004 518.097 L 266.039 518.097 C 257.29699999999997 518.097 250.21099999999998 511.01099999999997 250.21099999999998 502.27 L 250.21099999999998 456.743 C 250.21099999999998 448.002 257.29699999999997 440.916 266.039 440.916 L 473.051 440.916 C 481.793 440.916 488.87899999999996 448.002 488.87899999999996 456.743 L 488.87899999999996 502.27 z M 488.879 359.81 C 488.879 368.551 481.793 375.637 473.05100000000004 375.637 L 266.039 375.637 C 257.29699999999997 375.637 250.21099999999998 368.551 250.21099999999998 359.81 L 250.21099999999998 314.283 C 250.21099999999998 305.54200000000003 257.29699999999997 298.456 266.039 298.456 L 473.051 298.456 C 481.793 298.456 488.87899999999996 305.54200000000003 488.87899999999996 314.283 L 488.87899999999996 359.81 z" stroke-linecap="round" />
</g>
		<g transform="matrix(0.8 0 0 0.8 140.44 -50.44)"  >
<path style="stroke: rgb(18,87,130); stroke-width: 1; stroke-dasharray: none; stroke-linecap: butt; stroke-dashoffset: 0; stroke-linejoin: miter; stroke-miterlimit: 4; fill: rgb(35,31,32); fill-rule: nonzero; opacity: 1;" vector-effect="non-scaling-stroke"  transform=" translate(-675.55, -436.96)" d="M 674.12 237.14 C 642.139 219.89999999999998 605.55 210.11999999999998 566.67 210.11999999999998 C 563.63 210.11999999999998 560.5999999999999 210.17999999999998 557.5899999999999 210.29999999999998 L 557.5899999999999 235.32999999999998 C 560.5999999999999 235.19 563.6299999999999 235.11999999999998 566.67 235.11999999999998 C 590.149 235.11999999999998 612.6999999999999 239.14999999999998 633.68 246.55999999999997 C 625.0899999999999 252.64 610.01 264.09999999999997 608.5899999999999 270.5 C 606.5899999999999 279.5 629.5899999999999 296.5 629.5899999999999 310.5 C 629.5899999999999 324.5 588.5899999999999 331.77 578.5899999999999 350.64 C 568.5899999999999 369.5 564.5899999999999 390.5 578.5899999999999 399.5 C 592.5899999999999 408.5 608.5899999999999 400.5 622.5899999999999 414.5 C 636.5899999999999 428.5 646.5899999999999 434.5 639.5899999999999 443.5 C 632.5899999999999 452.5 617.5899999999999 481.5 630.5899999999999 499.5 C 643.5899999999999 517.5 665.5899999999999 511.35 692.5899999999999 500.43 C 719.5899999999999 489.5 733.5899999999999 505.3 733.5899999999999 510.90000000000003 C 733.5899999999999 511.88000000000005 734.29 513.24 735.4599999999999 514.8100000000001 C 738.91 519.49 743.68 522.5000000000001 748.8499999999999 523.8000000000001 C 720.42 583.19 663.8 626.6100000000001 596.4199999999998 636.6 C 600.0599999999998 623.7 598.7699999999999 619.87 595.5899999999998 613.5 C 591.5899999999998 605.5 586.5899999999998 590.5 588.5899999999998 585.5 C 590.5899999999998 580.5 608.5899999999998 563.5 597.5899999999998 544.5 C 593.9899999999998 538.28 588.6699999999998 533.66 583.1499999999997 530.27 C 572.2409999999998 523.5799999999999 566.5099999999998 510.94 568.7009999999998 498.33 C 569.6399999999998 492.93 570.0709999999998 486.64 569.5309999999998 479.51 C 567.8499999999998 457.43 569.6209999999999 466.77 557.5909999999998 457.77 L 557.5909999999998 663.6 C 558.2509999999997 663.64 558.9209999999998 663.66 559.5909999999998 663.6800000000001 C 561.9409999999998 663.7500000000001 564.3009999999998 663.7900000000001 566.6709999999998 663.7900000000001 C 574.2409999999999 663.7900000000001 581.7209999999998 663.4200000000001 589.1009999999998 662.69 C 680.4119999999998 653.73 755.8309999999998 590.6200000000001 782.8309999999998 505.9100000000001 C 789.7609999999997 484.1700000000001 793.5009999999997 461.0000000000001 793.5009999999997 436.9600000000001 C 793.5 350.56 745.19 275.44 674.12 237.14 z" stroke-linecap="round" />
</g>
</g>
</g>
<g transform="matrix(3.37 0 0 3.37 687.4 192.07)" id="bc835b81-faca-4698-942c-07dd3d0e6a4d"  >
<path style="stroke: rgb(0,0,0); stroke-width: 0; stroke-dasharray: none; stroke-linecap: butt; stroke-dashoffset: 0; stroke-linejoin: miter; stroke-miterlimit: 4; fill: rgb(0,0,0); fill-rule: nonzero; opacity: 1;" vector-effect="non-scaling-stroke"  transform=" translate(-50, -50)" d="M 14.148 44.105 L 18.091 40.162 C 20.01 38.242 23.176000000000002 38.242 25.096 40.162 L 42.164 57.230999999999995 L 74.904 24.440999999999995 C 76.823 22.521999999999995 79.98899999999999 22.521999999999995 81.90899999999999 24.440999999999995 L 85.851 28.383999999999997 C 87.771 30.302999999999997 87.771 33.415 85.851 35.334999999999994 L 45.641 75.54499999999999 L 45.537 75.64899999999999 L 45.433 75.75299999999999 L 45.329 75.80499999999999 L 45.277 75.90899999999999 L 45.173 75.961 L 45.069 76.065 L 44.965 76.117 L 44.861000000000004 76.16900000000001 L 44.757000000000005 76.27400000000002 L 44.653000000000006 76.32400000000001 L 44.54900000000001 76.37800000000001 L 44.44500000000001 76.43000000000002 L 44.34100000000001 76.48200000000003 L 44.23700000000001 76.53400000000003 L 44.08000000000001 76.58600000000004 L 43.97600000000001 76.63800000000005 L 43.872000000000014 76.69000000000005 L 43.768000000000015 76.74200000000006 L 43.664000000000016 76.74200000000006 L 43.56000000000002 76.79400000000007 L 43.405000000000015 76.84700000000007 L 43.301000000000016 76.84700000000007 L 43.19700000000002 76.89900000000007 L 42.93800000000002 76.89900000000007 L 42.83400000000002 76.95100000000008 L 42.62600000000002 76.95100000000008 L 42.47100000000002 77.00300000000009 L 41.795000000000016 77.00300000000009 L 41.640000000000015 76.95100000000008 L 41.432000000000016 76.95100000000008 L 41.32800000000002 76.89900000000007 L 41.06900000000002 76.89900000000007 L 40.96500000000002 76.84700000000007 L 40.86100000000002 76.84700000000007 L 40.70600000000002 76.79400000000007 L 40.60200000000002 76.74200000000006 L 40.49800000000002 76.74200000000006 L 40.39400000000002 76.69000000000005 L 40.29000000000002 76.63800000000005 L 40.185000000000024 76.58600000000004 L 40.081000000000024 76.53400000000003 L 40.029000000000025 76.53400000000003 C 39.563000000000024 76.32500000000003 39.096000000000025 75.96200000000003 38.630000000000024 75.54800000000003 L 14.140000000000025 51.059000000000026 C 12.229 49.137 12.229 46.025 14.148 44.105 z" stroke-linecap="round" />
</g>
</svg>